 http://leetleech.org/images/57929668204999322575.jpg

IMDB Link 
http://www.imdb.com/title/tt0419677/

Description
A disaffected soldier (Considine) returns to his hometown to get even with the thugs who brutalized his mentally-challenged brother (Kebbell) years ago.

Director: Shane Meadows
Writers: Paddy Considine, Shane Meadows  
Stars: Paddy Considine, Gary Stretch and Toby Kebbell
 
http://leetleech.org/images/90908304501816934653.png

General
Unique ID                        : 202493447125255217450389330701750386883 (0x9856D1C00242BB4E8A5CA2143C6440C3)
Complete name                    : C:\Users\pacino64\Desktop\Dead.Man's.Shoes\Dead.Man's.Shoes.2005.DVDrip.AC3.x264.mkv
Format                           : Matroska
Format version                   : Version 2
File size                        : 1.62 GiB
Duration                         : 1h 26mn
Overall bit rate                 : 2 688 Kbps
Movie name                       : VTS_01_1
Encoded date                     : UTC 2011-07-23 01:19:59
Writing application              : mkvmerge v4.6.0 ('Still Crazy After All These Years') built on Mar 10 2011 02:50:32
Writing library                  : libebml v1.2.0 + libmatroska v1.1.0

Video
ID                               : 1
Format                           : AVC
Format/Info                      : Advanced Video Codec
Format profile                   : High@L4.0
Format settings, CABAC           : Yes
Format settings, ReFrames        : 3 frames
Format settings, GOP             : M=4, N=46
Codec ID                         : V_MPEG4/ISO/AVC
Duration                         : 1h 26mn
Bit rate mode                    : Variable
Bit rate                         : 2 048 Kbps
Maximum bit rate                 : 25.0 Mbps
Width                            : 720 pixels
Height                           : 576 pixels
Display aspect ratio             : 16:9
Frame rate                       : 25.000 fps
Standard                         : PAL
Color space                      : YUV
Chroma subsampling               : 4:2:0
Bit depth                        : 8 bits
Scan type                        : Progressive
Bits/(Pixel*Frame)               : 0.198
Stream size                      : 1.20 GiB (74%)
Writing library                  : x264 core 114 r1924 08d04a4
 / ip_ratio=1.40 / aq=1:1.00

Audio
ID                               : 2
Format                           : AC-3
Format/Info                      : Audio Coding 3
Mode extension                   : CM (complete main)
Codec ID                         : A_AC3
Duration                         : 1h 26mn
Bit rate mode                    : Constant
Bit rate                         : 640 Kbps
Channel(s)                       : 6 channels
Channel positions                : Front: L C R, Side: L R, LFE
Sampling rate                    : 48.0 KHz
Bit depth                        : 16 bits
Compression mode                 : Lossy
Stream size                      : 396 MiB (24%)
